# xmcd CD database file
#
# Track frame offsets:
#	150
#	12607
#	48277
#	63255
#	81105
#	95465
#	110322
#	122595
#	135605
#	166362
#	186297
#	203584
#	223995
#	235892
#	248207
#
# Disc length: 3460 seconds
#
# Revision: 4
# Processed by: cddbd v1.5.2PL0 Copyright (c) Steve Scherf et al.
# Submitted via: CDex 1.51
#
DISCID=cf0d820f
DTITLE=Various Artist - Black Files cd2
DYEAR=2002
DGENRE=Black Music
TTITLE0=James Brown/ I Got You (I Feel Good)
TTITLE1=Rick James/ You and I
TTITLE2=Commodores/ Brick House
TTITLE3=Kool& The Gang/ Let's Go Dancin' (Ohh, La, La, La)
TTITLE4=Marvin Gaye/ Mercy Mercy Me (The Ecology)
TTITLE5=The Dells/ Love Is Blue - I Can Sing A Rainbow
TTITLE6=Michael Jackson - Ben
TTITLE7=Dianna Ross and Marvin Gaye - My Mistake (was to love you)
TTITLE8=The Temptations/ Papa Was A Rollin' Stone
TTITLE9=War - Cisco Kid (live)
TTITLE10=Donna Summer - Bad Girls
TTITLE11=Gloria Gaynor and Isaac Hayes/ You're the first, the last, my everything 
TTITLE12=Jimmy Cliff/ You can get it if you really want
TTITLE13=Smokey Robinson and The Miracles/ Mickey's Monkey 
TTITLE14=Chuck Berry/ Rock n' Roll Music
EXTD=YEAR: 2002
EXTT0=
EXTT1=
EXTT2=
EXTT3=
EXTT4=
EXTT5=
EXTT6=
EXTT7=
EXTT8=
EXTT9=
EXTT10=
EXTT11=
EXTT12=
EXTT13=
EXTT14=
PLAYORDER=
